<svg width="16" height="16" viewBox="0 0 16 16" fill="none" xmlns="http://www.w3.org/2000/svg">
<g clip-path="url(#clip0_1_2)">
<path d="M3.39 12.1C2.82333 12.1 2.37667 11.9533 2.05 11.66C1.72333 11.36 1.56 10.9533 1.56 10.44C1.56 9.9 1.74667 9.48333 2.12 9.19C2.49333 8.89 3.01333 8.74 3.68 8.74H5V8.28C5 8.01333 4.91333 7.80667 4.74 7.66C4.56667 7.51333 4.32333 7.44 4.01 7.44C3.72333 7.44 3.48667 7.5 3.3 7.62C3.12 7.74 3.02 7.9 3 8.1H1.81C1.83667 7.58667 2.05333 7.17667 2.46 6.87C2.87333 6.55667 3.40333 6.4 4.05 6.4C4.73 6.4 5.26667 6.56667 5.66 6.9C6.05333 7.23333 6.25 7.69 6.25 8.27V12H5.04V11.07H5.02C4.94667 11.39 4.76667 11.6433 4.48 11.83C4.19333 12.01 3.83 12.1 3.39 12.1ZM3.8 11.17C4.15333 11.17 4.44 11.0833 4.66 10.91C4.88667 10.73 5 10.4933 5 10.2V9.54H3.71C3.43 9.54 3.21 9.61333 3.05 9.76C2.89 9.9 2.81 10.0933 2.81 10.34C2.81 10.6 2.89667 10.8033 3.07 10.95C3.25 11.0967 3.49333 11.17 3.8 11.17ZM9.11609 12.1C8.71609 12.1 8.38609 12.0033 8.12609 11.81C7.86609 11.6167 7.70276 11.3433 7.63609 10.99V12H6.41609V4.7H7.66609V6.24L7.62609 7.55C7.68609 7.19 7.84609 6.91 8.10609 6.71C8.37276 6.50333 8.70943 6.4 9.11609 6.4C9.66943 6.4 10.1128 6.59 10.4461 6.97C10.7794 7.35 10.9461 7.86333 10.9461 8.51V10C10.9461 10.6467 10.7794 11.16 10.4461 11.54C10.1128 11.9133 9.66943 12.1 9.11609 12.1ZM8.67609 11.02C8.99609 11.02 9.24609 10.9267 9.42609 10.74C9.60609 10.5533 9.69609 10.2867 9.69609 9.94V8.56C9.69609 8.21333 9.60609 7.94667 9.42609 7.76C9.24609 7.57333 8.99609 7.48 8.67609 7.48C8.35609 7.48 8.10609 7.57667 7.92609 7.77C7.75276 7.95667 7.66609 8.22 7.66609 8.56V9.94C7.66609 10.28 7.75276 10.5467 7.92609 10.74C8.10609 10.9267 8.35609 11.02 8.67609 11.02ZM13.2922 12.1C13.0055 12.1 12.7755 12.0167 12.6022 11.85C12.4355 11.6833 12.3522 11.4567 12.3522 11.17C12.3522 10.8833 12.4355 10.6567 12.6022 10.49C12.7755 10.3167 13.0055 10.23 13.2922 10.23C13.5789 10.23 13.8055 10.3167 13.9722 10.49C14.1455 10.6567 14.2322 10.8833 14.2322 11.17C14.2322 11.4567 14.1455 11.6833 13.9722 11.85C13.8055 12.0167 13.5789 12.1 13.2922 12.1Z" fill="#D3D3D3"/>
</g>
<defs>
<clipPath id="clip0_1_2">
<rect width="16" height="16" fill="white"/>
</clipPath>
</defs>
</svg>
